# xmcd CD database file
# Copyright (C) 1997 Ti Kan
# 
# Track frame offsets:
#     180
#     11805
#     22609
#     33884
#     45424
#     58053
#     70600
#     81999
#     92997
#     108064
#     119518
#     129962
# 
# Disc length: 1869 seconds
# 
# Revision: 1
# Processed by: cddbd v1.4b41PL1 Copyright (c) Steve Scherf et al.
# Submitted via: DiscPlay 4.0.4
# 
DISCID=8c074b0c
DTITLE=Patsy Cline - Greatest Hits of Patsy Cline
DYEAR=1900
DGENRE=
TTITLE0=Walking After Midnight
TTITLE1=Honky Tonk Merry Go Round
TTITLE2=Hungry For Love
TTITLE3=I've Loved And Lost Again
TTITLE4=Just A Closer Walk With Thee
TTITLE5=Fingerprints
TTITLE6=That Wonderful Someone
TTITLE7=Stop The World And Let Me Off
TTITLE8=Then You'll Know
TTITLE9=The Heart You Break May Be Your Own
TTITLE10=Too Many Secrets
TTITLE11=Walkin' Dreams
EXTD=
EXTT0=
EXTT1=
EXTT2=
EXTT3=
EXTT4=
EXTT5=
EXTT6=
EXTT7=
EXTT8=
EXTT9=
EXTT10=
EXTT11=
PLAYORDER=
